Coordinates
version=1
nRows=9
nColumns=24
inDegrees=yes

Units are S.I. units (second, meters, Newtons, ...)
Angles are in degrees.

endheader
time	pelvis_tilt	pelvis_list	pelvis_rotation	pelvis_tx	pelvis_ty	pelvis_tz	hip_flexion_r	hip_adduction_r	hip_rotation_r	knee_angle_r	ankle_angle_r	subtalar_angle_r	mtp_angle_r	hip_flexion_l	hip_adduction_l	hip_rotation_l	knee_angle_l	ankle_angle_l	subtalar_angle_l	mtp_angle_l	lumbar_extension	lumbar_bending	lumbar_rotation
      1.71500000	      4.41490962	     -9.28596507	      6.71182950	      0.63600582	      0.91250477	      0.03047862	      1.25182704	     15.22893110	     -6.50166953	    -15.24074876	     18.76677490	     -5.07053964	     26.12636070	     18.12234742	     -7.93036468	      5.92108528	    -66.10074033	     16.75222788	     -4.68067319	     27.30934011	    -11.81912012	      8.37507943	     -5.26583790
      1.72000000	      4.60299664	     -9.08228326	      6.72781124	      0.64395644	      0.91365377	      0.03029663	      0.03549175	     15.18111487	     -5.91828803	    -14.42018555	     18.62293672	     -5.53342253	     25.92004689	     18.51467462	     -7.61330946	      5.81852201	    -65.01953205	     16.97445059	     -4.94560174	     27.26114402	    -12.02670851	      8.17649776	     -5.26248393
      1.72500000	      4.79233774	     -8.87578153	      6.72793362	      0.65191136	      0.91474054	      0.03013361	     -1.17983999	     15.12095715	     -5.33309111	    -13.60986527	     18.45648830	     -6.00338112	     25.73536983	     18.85977142	     -7.30743143	      5.68760846	    -63.83644750	     17.16504612	     -5.20419004	     27.20502080	    -12.23810209	      7.97213078	     -5.25220876
      1.73000000	      4.99379401	     -8.67121339	      6.70991407	      0.65984354	      0.91578334	      0.02996388	     -2.40424674	     15.05127531	     -4.74856375	    -12.80705261	     18.27177086	     -6.46549731	     25.57182667	     19.14638370	     -7.01116747	      5.54107833	    -62.54983715	     17.32145953	     -5.44174225	     27.13898894	    -12.46891928	      7.77312503	     -5.21917728
      1.73500000	      5.18996207	     -8.47192854	      6.67125681	      0.66777591	      0.91674497	      0.02980633	     -3.61409885	     14.97136910	     -4.18207072	    -12.02548697	     18.07776874	     -6.88854437	     25.43843523	     19.39677143	     -6.73433681	      5.36747530	    -61.17177263	     17.45412031	     -5.65123244	     27.06440836	    -12.69494635	      7.57873689	     -5.17128374
      1.74000000	      5.38673915	     -8.27464909	      6.61408660	      0.67569577	      0.91763605	      0.02967432	     -4.81543130	     14.88013785	     -3.64458603	    -11.26219469	     17.87435757	     -7.28371124	     25.33465520	     19.60366805	     -6.47400679	      5.17073323	    -59.70014209	     17.55976346	     -5.82787396	     26.97953500	    -12.92563659	      7.38301211	     -5.11224839
      1.74500000	      5.59705091	     -8.10424319	      6.52866224	      0.68359986	      0.91846223	      0.02959158	     -6.02121218	     14.80370657	     -3.12394959	    -10.51678645	     17.65602141	     -7.61227411	     25.27025249	     19.75922626	     -6.26898310	      4.93651536	    -58.14554855	     17.66090693	     -5.95868017	     26.87564968	    -13.17605567	      7.21247223	     -5.02919746
      1.75000000	      5.77975410	     -7.92550980	      6.42531279	      0.69149408	      0.91920298	      0.02950439	     -7.18148216	     14.69754100	     -2.65903489	     -9.80292282	     17.43385287	     -7.89247304	     25.25162199	     19.89565756	     -6.05542919	      4.69491814	    -56.49044319	     17.72431600	     -6.05670938	     26.75572309	    -13.39759081	      7.03042970	     -4.92541278
      1.75500000	      5.96332066	     -7.76130739	      6.30294393	      0.69936440	      0.91985013	      0.02945334	     -8.32547567	     14.59213653	     -2.23758062	     -9.11929971	     17.22871639	     -8.10991265	     25.27185933	     19.99608971	     -5.87501841	      4.42855440	    -54.75751000	     17.76829734	     -6.11049443	     26.63104898	    -13.62382313	      6.86026288	     -4.80874872
